<?xml version="1.0" standalone="no"?>
<!DOCTYPE svg PUBLIC "-//W3C//DTD SVG 20010904//EN"
 "http://www.w3.org/TR/2001/REC-SVG-20010904/DTD/svg10.dtd">
<svg version="1.0" xmlns="http://www.w3.org/2000/svg"
 width="100.000000pt" height="100.000000pt" viewBox="0 0 100.000000 100.000000"
 preserveAspectRatio="xMidYMid meet">
<metadata>
Created by potrace 1.14, written by Peter Selinger 2001-2017
</metadata>
<g transform="translate(0.000000,100.000000) scale(0.100000,-0.100000)"
fill="#000000" stroke="none">
<path d="M0 500 l0 -500 500 0 500 0 0 500 0 500 -500 0 -500 0 0 -500z m263
197 c5 -36 4 -48 -5 -45 -7 3 -12 24 -13 53 0 29 -5 50 -12 52 -7 3 -13 -1
-13 -8 0 -7 -3 -9 -6 -6 -4 4 -1 13 6 22 11 14 14 14 25 -2 7 -10 15 -40 18
-66z m27 39 c0 -8 3 -23 6 -33 5 -16 4 -16 -10 1 -18 22 -21 46 -6 46 6 0 10
-6 10 -14z m375 -30 c-11 -8 -16 -19 -12 -30 5 -12 0 -19 -16 -25 -32 -12 -51
-37 -37 -46 20 -13 62 18 82 60 l19 40 -5 -40 c-6 -42 -31 -71 -73 -81 -30 -8
-36 -2 -36 37 0 25 10 41 42 71 23 22 45 37 48 34 4 -3 -2 -12 -12 -20z m-108
-33 c6 -18 -28 -31 -64 -26 -36 6 -45 23 -13 23 11 0 20 6 20 14 0 17 51 7 57
-11z m-243 -78 c23 -32 164 -34 203 -3 12 10 10 -7 -9 -69 -9 -32 -78 -93
-105 -93 -19 0 -93 51 -93 64 1 29 15 35 59 25 24 -5 46 -8 48 -5 3 3 -8 8
-23 11 -16 4 -36 9 -45 11 -23 6 -59 42 -59 59 0 19 10 19 24 0z m257 -127
c-11 -31 -25 -66 -31 -78 -6 -12 -9 -24 -6 -27 3 -3 16 17 30 46 l24 52 7 -56
c3 -31 5 -58 3 -60 -2 -2 -32 -20 -68 -40 -56 -32 -67 -35 -87 -24 -23 12 -26
36 -4 32 6 -2 11 10 11 27 0 16 12 46 26 67 15 21 24 30 20 20 -14 -41 -19
-72 -9 -62 15 15 34 97 21 89 -6 -4 -9 -2 -7 4 4 11 82 71 87 67 1 -1 -7 -27
-17 -57z m-134 -250 c-3 -8 -6 -5 -6 6 -1 11 2 17 5 13 3 -3 4 -12 1 -19z"/>
</g>
</svg>
